<?xml version="1.0" standalone="no"?>
<!DOCTYPE svg PUBLIC "-//W3C//DTD SVG 20010904//EN"
 "http://www.w3.org/TR/2001/REC-SVG-20010904/DTD/svg10.dtd">
<svg version="1.0" xmlns="http://www.w3.org/2000/svg"
 width="180.000000pt" height="180.000000pt" viewBox="0 0 180.000000 180.000000"
 preserveAspectRatio="xMidYMid meet">
<metadata>
Created by potrace 1.14, written by Peter Selinger 2001-2017
</metadata>
<g transform="translate(0.000000,180.000000) scale(0.100000,-0.100000)"
fill="#000000" stroke="none">
<path d="M0 1410 c0 -383 0 -390 20 -390 11 0 20 -4 20 -10 0 -5 -9 -10 -20
-10 -15 0 -20 -7 -20 -29 l0 -29 43 15 c66 23 260 1 299 -34 13 -12 28 -14 63
-9 50 8 52 11 28 46 l-16 25 24 -21 c72 -64 107 -50 50 19 -46 55 -52 71 -82
234 l-23 122 34 66 c19 37 50 85 70 108 19 23 48 61 62 84 24 37 112 116 201
181 l31 22 -392 0 -392 0 0 -390z"/>
<path d="M1185 1781 c137 -39 255 -112 255 -157 0 -35 -36 -67 -68 -61 l-27 5
25 -17 c14 -9 35 -26 48 -38 13 -13 27 -23 32 -23 6 0 10 -8 10 -17 0 -15 1
-15 13 2 8 10 19 15 25 11 19 -11 14 -44 -8 -59 -21 -14 -21 -14 6 -93 18 -54
27 -104 28 -159 2 -84 4 -90 60 -175 47 -71 47 -96 0 -116 -27 -11 -34 -19
-29 -32 16 -37 16 -49 1 -61 -12 -10 -13 -18 -4 -37 9 -19 8 -28 -5 -42 -9
-10 -16 -33 -15 -53 3 -87 -38 -107 -174 -84 -53 9 -107 14 -120 10 -75 -23
-145 -172 -121 -258 7 -25 27 -36 166 -97 87 -37 176 -81 198 -96 42 -29 119
-110 119 -125 0 -5 45 -9 100 -9 l100 0 0 900 0 900 -337 -1 c-337 0 -338 0
-278 -18z"/>
<path d="M1395 1190 l-30 -8 37 -1 c47 -1 58 -19 27 -42 -13 -9 -34 -26 -47
-37 l-22 -20 26 -6 c18 -5 24 -11 20 -23 -5 -11 -2 -14 10 -9 8 3 18 6 20 6 2
0 4 14 4 30 0 18 6 33 15 36 8 4 12 10 9 15 -3 5 2 16 11 25 9 9 13 20 8 25
-13 13 -56 17 -88 9z"/>
<path d="M63 923 c-61 -16 -63 -17 -63 -48 0 -30 5 -34 59 -59 32 -14 64 -26
70 -26 27 0 164 -71 155 -80 -15 -15 -185 -60 -235 -63 l-48 -2 -1 -277 0
-278 52 40 c29 23 134 81 233 131 l180 91 105 108 c96 98 118 130 88 130 -6 0
-27 -10 -47 -22 -19 -12 -42 -23 -49 -24 -8 -2 -30 -14 -50 -28 -55 -37 -88
-47 -184 -57 -106 -10 -142 -24 -225 -90 -61 -48 -63 -49 -48 -19 9 17 23 34
31 37 7 3 14 10 14 15 0 6 -8 4 -17 -3 -15 -12 -16 -12 -9 6 5 11 9 26 9 33 1
24 94 61 206 81 138 25 211 61 241 119 10 20 2 17 -42 -17 -30 -22 -71 -47
-91 -56 -49 -20 -157 -32 -157 -16 0 6 8 11 18 12 14 0 14 2 -3 8 -18 7 -14
12 29 39 27 18 58 34 68 38 10 3 16 9 13 14 -2 4 9 13 26 20 17 7 38 25 47 39
9 14 21 29 26 33 5 3 11 12 12 20 2 7 7 28 13 46 l10 33 -33 -20 c-18 -11 -56
-25 -84 -32 -50 -10 -54 -10 -99 20 -52 35 -92 48 -203 65 l-75 12 78 18 c42
11 77 21 77 22 0 7 -36 2 -97 -13z m52 -313 c-3 -5 -18 -10 -33 -10 -21 0 -24
2 -12 10 20 13 53 13 45 0z"/>
</g>
</svg>
